<svg width="161" height="181" viewBox="0 0 161 181" fill="none" xmlns="http://www.w3.org/2000/svg">
<g filter="url(#filter0_d)">
<path d="M13.3362 74.9107C8.04018 73.3443 2.47704 76.3677 0.910599 81.6638C-0.655842 86.9598 2.3676 92.523 7.66365 94.0894L13.3362 74.9107ZM59 161L49.1885 162.933C50.1049 167.585 54.1624 170.954 58.9037 171C63.6451 171.045 67.7667 167.755 68.7724 163.121L59 161ZM145.567 20.3423C150.727 18.3723 153.312 12.5926 151.342 7.43307C149.372 2.27352 143.592 -0.312102 138.433 1.65791L145.567 20.3423ZM7.66365 94.0894C13.9398 95.9457 19.8326 100.45 25.2855 107.179C30.719 113.884 35.2449 122.225 38.8811 130.65C42.4958 139.026 45.0903 147.152 46.7824 153.213C47.6252 156.231 48.2362 158.708 48.6324 160.41C48.8303 161.261 48.9742 161.916 49.0663 162.347C49.1123 162.562 49.1453 162.721 49.1656 162.82C49.1757 162.869 49.1827 162.904 49.1865 162.923C49.1884 162.932 49.1895 162.938 49.1899 162.939C49.19 162.94 49.19 162.94 49.1898 162.939C49.1897 162.938 49.1893 162.937 49.1893 162.937C49.1889 162.935 49.1885 162.933 59 161C68.8115 159.067 68.811 159.065 68.8104 159.062C68.8102 159.061 68.8095 159.058 68.809 159.055C68.808 159.05 68.8068 159.044 68.8054 159.037C68.8025 159.022 68.7989 159.004 68.7944 158.982C68.7854 158.937 68.7732 158.877 68.7577 158.801C68.7266 158.65 68.6823 158.437 68.6244 158.166C68.5087 157.624 68.3386 156.851 68.1117 155.877C67.6583 153.929 66.9763 151.167 66.0457 147.834C64.1909 141.191 61.3167 132.162 57.2439 122.725C53.1925 113.338 47.8122 103.21 40.8238 94.5868C33.8547 85.9873 24.8101 78.3044 13.3362 74.9107L7.66365 94.0894ZM59 161C68.7724 163.121 68.7722 163.122 68.772 163.123C68.7721 163.123 68.772 163.123 68.7722 163.122C68.7725 163.121 68.7733 163.117 68.7744 163.112C68.7768 163.101 68.7809 163.083 68.7866 163.056C68.7982 163.004 68.8165 162.921 68.8415 162.809C68.8917 162.584 68.969 162.242 69.0734 161.788C69.2822 160.88 69.5991 159.529 70.024 157.793C70.8741 154.318 72.1545 149.306 73.8628 143.216C77.2847 131.017 82.3965 114.588 89.1666 97.5717C95.959 80.499 104.293 63.1614 114.065 48.9677C123.956 34.6011 134.585 24.5356 145.567 20.3423L138.433 1.65791C121.915 7.96463 108.419 21.8991 97.5914 37.6262C86.6447 53.5263 77.666 72.3761 70.5834 90.1784C63.4785 108.037 58.1527 125.171 54.606 137.815C52.8298 144.147 51.4931 149.377 50.597 153.039C50.1489 154.871 49.8106 156.312 49.5824 157.304C49.4682 157.801 49.3816 158.185 49.3225 158.45C49.2929 158.582 49.2702 158.685 49.2544 158.756C49.2465 158.792 49.2403 158.821 49.2358 158.841C49.2336 158.851 49.2318 158.859 49.2304 158.866C49.2297 158.869 49.229 158.872 49.2286 158.874C49.228 158.877 49.2276 158.879 59 161Z" fill="white"/>
</g>
<defs>
<filter id="filter0_d" x="0.497314" y="0.997391" width="159.505" height="180.003" filterUnits="userSpaceOnUse" color-interpolation-filters="sRGB">
<feFlood flood-opacity="0" result="BackgroundImageFix"/>
<feColorMatrix in="SourceAlpha" type="matrix" values="0 0 0 0 0 0 0 0 0 0 0 0 0 0 0 0 0 0 127 0"/>
<feOffset dx="5" dy="7"/>
<feGaussianBlur stdDeviation="1.5"/>
<feColorMatrix type="matrix" values="0 0 0 0 0 0 0 0 0 0 0 0 0 0 0 0 0 0 0.65 0"/>
<feBlend mode="normal" in2="BackgroundImageFix" result="effect1_dropShadow"/>
<feBlend mode="normal" in="SourceGraphic" in2="effect1_dropShadow" result="shape"/>
</filter>
</defs>
</svg>
